<?xml version="1.0" standalone="no"?>
<!DOCTYPE svg PUBLIC "-//W3C//DTD SVG 20010904//EN"
 "http://www.w3.org/TR/2001/REC-SVG-20010904/DTD/svg10.dtd">
<svg version="1.0" xmlns="http://www.w3.org/2000/svg"
 width="342.000000pt" height="382.000000pt" viewBox="0 0 342.000000 382.000000"
 preserveAspectRatio="xMidYMid meet">

<g transform="translate(0.000000,382.000000) scale(0.100000,-0.100000)"
fill="#000000" stroke="none">
<path d="M555 3729 c-131 -69 -203 -170 -226 -317 -21 -130 18 -311 103 -475
l40 -77 -37 -78 c-63 -132 -215 -350 -339 -487 -25 -27 -46 -53 -46 -57 0 -4
29 1 65 11 36 10 65 16 65 13 0 -2 -13 -28 -29 -56 -51 -90 -64 -154 -58 -290
5 -115 29 -317 46 -381 7 -29 8 -28 53 54 l46 84 16 -59 c23 -82 43 -132 73
-183 27 -46 149 -180 194 -212 l28 -19 -6 57 -6 57 63 -67 c35 -38 105 -99
156 -138 156 -117 203 -184 228 -329 11 -63 22 -94 55 -143 51 -78 81 -164 81
-231 0 -54 20 -98 68 -149 52 -55 115 -86 243 -118 146 -37 161 -43 216 -99
l42 -43 56 51 c59 54 59 54 245 102 95 24 175 71 223 132 24 30 32 54 43 128
15 99 39 165 77 205 18 20 26 45 34 108 23 166 69 245 202 345 110 81 156 123
210 186 l44 51 -6 -65 -5 -65 106 110 c116 120 154 182 187 308 l18 69 51 -96
c27 -53 54 -92 57 -88 7 7 28 144 50 325 6 54 9 141 7 192 -5 85 -9 103 -47
181 -22 47 -41 87 -41 89 0 1 29 -6 65 -16 36 -10 65 -15 65 -13 0 3 -26 36
-58 72 -133 152 -264 342 -327 474 l-37 76 51 104 c166 335 119 630 -119 757
-138 74 -243 21 -332 -166 -46 -95 -84 -145 -126 -162 -25 -10 -37 -7 -112 30
-107 52 -169 76 -228 90 -62 14 -201 13 -285 -1 -51 -9 -83 -9 -134 0 -93 16
-236 14 -306 -5 -32 -8 -112 -40 -178 -70 -114 -53 -120 -55 -148 -41 -42 22
-73 63 -121 160 -50 99 -95 157 -144 180 -48 23 -123 21 -171 -5z m137 -97
c39 -26 60 -57 107 -154 32 -68 51 -95 86 -122 l45 -34 -33 -21 c-68 -42 -152
-37 -207 12 -35 31 -67 78 -76 111 -3 15 -11 25 -17 23 -19 -6 -48 -53 -57
-93 -17 -73 12 -132 85 -172 l30 -17 -32 -3 c-47 -5 -41 -18 15 -31 32 -8 58
-8 82 -2 l35 10 -35 -30 c-19 -17 -54 -40 -78 -51 -23 -11 -55 -35 -70 -53
-15 -18 -37 -35 -48 -39 -19 -6 -26 2 -52 56 -62 129 -76 184 -77 303 0 98 3
116 27 167 56 120 192 191 270 140z m2163 -26 c32 -21 64 -53 80 -80 34 -58
58 -176 50 -244 -13 -105 -100 -322 -129 -322 -8 0 -24 13 -35 29 -22 30 -90
86 -97 79 -5 -5 132 -334 176 -419 17 -35 65 -115 106 -177 41 -62 74 -115 74
-118 0 -15 -149 90 -252 178 l-56 48 57 -112 c61 -122 86 -217 97 -363 6 -90
11 -91 -64 10 l-37 50 -6 -75 c-14 -170 -64 -266 -183 -352 l-39 -28 31 0 c42
0 131 34 179 69 22 16 53 50 69 75 16 25 32 46 35 46 4 0 22 -34 40 -75 20
-46 36 -71 40 -63 13 25 48 184 53 248 4 36 0 104 -7 153 -7 48 -10 87 -6 87
13 0 78 -79 100 -122 17 -32 24 -66 27 -133 4 -89 4 -90 -15 -72 -19 17 -20
15 -36 -60 -19 -84 -101 -267 -134 -296 -20 -17 -20 -16 -31 65 -7 45 -16 86
-20 90 -5 5 -21 -23 -36 -62 -30 -76 -92 -166 -157 -230 -32 -31 -239 -170
-253 -170 -2 0 12 50 30 111 19 61 34 133 34 159 0 72 -54 171 -134 248 -36
34 -77 82 -91 107 -15 25 -31 45 -36 45 -19 0 4 -127 37 -201 39 -87 42 -133
14 -188 -44 -86 -133 -125 -290 -126 -74 0 -110 5 -162 23 -64 22 -148 73
-148 90 0 5 39 26 86 47 103 46 178 110 210 180 39 82 30 187 -21 256 -14 19
-33 47 -42 63 -10 15 -26 38 -36 50 -18 21 -18 21 -12 -18 4 -21 20 -68 36
-104 35 -76 47 -149 29 -182 l-12 -22 -12 23 c-26 53 -90 62 -159 24 -25 -14
-68 -28 -96 -32 -45 -5 -60 -2 -116 27 -69 35 -120 37 -155 5 -28 -26 -33 -17
-28 53 4 47 15 87 37 132 17 36 31 78 31 95 0 27 -3 25 -45 -35 -75 -110 -95
-157 -95 -229 0 -78 23 -131 83 -190 39 -39 183 -121 213 -121 24 0 26 -21 4
-45 -26 -28 -96 -59 -182 -81 -116 -30 -286 -2 -355 59 -68 60 -80 135 -37
227 22 48 51 206 40 217 -2 2 -17 -18 -34 -44 -17 -26 -64 -82 -104 -124 -55
-56 -80 -91 -96 -133 -29 -77 -28 -124 7 -242 16 -54 29 -100 28 -101 -2 -1
-47 26 -102 59 -134 83 -218 168 -272 278 -23 47 -44 94 -48 104 -10 34 -24 4
-36 -79 -6 -44 -12 -82 -14 -84 -7 -6 -72 104 -104 176 -17 40 -39 104 -47
143 -9 38 -20 70 -25 70 -5 0 -9 -4 -9 -10 0 -5 -4 -10 -10 -10 -6 0 -10 30
-10 71 0 60 5 80 31 129 29 55 93 129 103 119 3 -2 0 -25 -6 -49 -18 -79 -13
-236 12 -335 12 -49 25 -96 29 -103 4 -8 20 17 40 63 18 41 36 75 40 75 3 0
19 -21 35 -46 16 -25 47 -59 69 -75 48 -35 142 -71 174 -67 21 3 17 7 -31 44
-96 75 -155 207 -156 348 0 68 -8 66 -60 -15 -44 -68 -54 -63 -46 19 16 162
37 240 95 357 l57 114 -35 -30 c-116 -97 -245 -189 -264 -189 -4 0 16 35 45
78 106 153 209 363 268 547 7 22 19 45 26 50 93 75 294 222 344 252 101 60
280 140 363 162 65 17 109 20 329 20 291 0 325 -5 491 -76 102 -43 289 -148
380 -214 61 -44 134 -63 191 -48 53 13 60 26 15 31 l-32 3 38 25 c59 39 80 73
79 129 -2 52 -14 82 -47 119 -24 26 -37 28 -37 6 0 -49 -69 -135 -129 -161
-42 -18 -103 -11 -150 18 l-33 20 36 27 c44 32 67 66 106 150 73 157 146 187
265 108z m-1470 -2261 c19 -4 20 -12 20 -160 0 -170 -4 -178 -51 -123 -35 42
-57 96 -78 185 -26 114 -25 115 37 108 28 -4 61 -8 72 -10z m729 -32 c-11 -69
-35 -157 -51 -188 -19 -38 -62 -95 -71 -95 -4 0 -7 70 -7 155 0 174 -7 161 88
164 l48 1 -7 -37z m-625 21 c30 -6 31 -7 31 -65 0 -35 -4 -59 -10 -59 -15 0
-60 50 -71 78 -20 51 -12 58 50 46z m461 -9 c0 -23 -24 -67 -49 -89 -21 -19
-21 -19 -21 0 0 10 -3 36 -6 56 -7 39 -8 38 64 47 6 0 12 -6 12 -14z m-350
-52 c0 -40 -2 -44 -16 -32 -20 17 -46 67 -40 78 3 5 17 6 31 3 22 -4 25 -9 25
-49z m78 5 c4 -48 -20 -52 -43 -8 -21 42 -19 52 13 48 23 -3 27 -8 30 -40z
m82 32 c0 -16 -29 -70 -38 -70 -8 0 -13 49 -7 68 5 15 45 16 45 2z m80 3 c0
-11 -39 -73 -45 -73 -3 0 -5 18 -5 40 0 36 3 40 25 40 14 0 25 -3 25 -7z
m-690 -73 c39 -78 76 -220 89 -351 7 -57 16 -122 22 -144 14 -50 53 -103 87
-117 17 -7 142 -11 337 -12 292 -1 312 0 350 19 59 30 82 84 99 230 23 193 70
357 121 420 14 18 14 17 0 -20 -26 -64 -55 -218 -71 -380 -17 -167 -33 -215
-90 -264 -18 -17 -51 -34 -71 -39 -52 -12 -661 -7 -693 6 -37 15 -75 54 -99
101 -16 30 -25 81 -36 190 -17 162 -45 318 -70 377 -16 40 -17 44 -10 44 3 0
18 -27 35 -60z m291 -510 c11 0 28 5 39 12 15 10 26 9 54 -5 20 -9 36 -21 36
-26 0 -21 -59 -71 -85 -71 -50 0 -124 50 -151 102 -27 53 -17 59 37 22 28 -19
60 -34 70 -34z m612 39 c-14 -73 -123 -144 -182 -120 -23 10 -51 46 -51 66 0
3 14 11 30 20 23 12 35 13 51 4 30 -16 79 -3 119 30 19 16 36 28 37 28 1 -1
-1 -14 -4 -28z m-433 -90 c0 -20 -24 -26 -35 -9 -8 13 14 42 26 34 5 -3 9 -14
9 -25z m58 8 c2 -12 -3 -17 -17 -17 -12 0 -21 6 -21 13 0 31 32 34 38 4z m62
-3 c0 -8 -7 -14 -15 -14 -15 0 -21 21 -9 33 10 9 24 -2 24 -19z m50 7 c11 -22
1 -34 -18 -22 -7 4 -10 15 -6 24 8 22 11 21 24 -2z m-283 -195 c1 -1 -11 -19
-28 -39 -27 -33 -28 -37 -11 -37 11 0 43 16 72 36 l53 36 -6 -41 c-6 -46 -5
-46 61 7 l43 34 27 -24 c15 -14 39 -33 54 -42 l26 -17 -5 42 -6 41 53 -36 c29
-20 61 -36 72 -36 17 0 16 4 -11 37 -17 20 -29 38 -28 39 1 1 55 5 119 9 l118
7 30 -30 c16 -17 30 -35 30 -41 0 -5 -28 -11 -62 -13 l-63 -3 49 -34 c36 -25
45 -36 35 -42 -19 -12 -102 -11 -133 1 -42 16 -32 -15 14 -46 22 -15 39 -29
37 -30 -10 -10 -123 22 -153 42 -44 30 -46 9 -4 -39 17 -19 30 -38 30 -41 0
-11 -72 5 -101 22 -14 8 -33 26 -41 39 l-15 25 -29 -59 c-16 -32 -36 -58 -44
-58 -8 0 -28 25 -43 57 l-29 56 -32 -35 c-21 -24 -44 -37 -72 -42 -59 -11 -65
-4 -28 33 19 19 34 42 34 51 0 14 -3 14 -29 -4 -29 -21 -148 -57 -157 -48 -3
3 11 15 30 27 20 12 36 23 36 25 0 2 3 11 6 19 5 14 2 15 -21 6 -33 -12 -115
-13 -135 0 -8 5 -12 10 -10 12 3 2 25 17 49 33 l45 30 -62 3 c-34 2 -62 8 -62
13 0 6 14 24 30 41 l30 30 118 -7 c64 -4 118 -8 119 -9z"/>
<path d="M1583 3401 c-48 -12 -82 -38 -89 -67 -4 -14 -4 -27 -2 -30 10 -10 65
-7 125 6 55 12 71 12 133 -3 73 -17 120 -11 120 16 0 16 -34 49 -69 67 -29 15
-174 22 -218 11z"/>
<path d="M1476 3204 c-9 -8 -16 -24 -16 -34 0 -25 71 -86 109 -95 41 -9 61 8
61 52 0 50 -45 93 -99 93 -23 0 -46 -7 -55 -16z"/>
<path d="M1001 3154 c-41 -38 -72 -78 -96 -126 -19 -39 -35 -76 -35 -82 0 -33
-23 -86 -36 -86 -9 0 -31 -15 -50 -34 -25 -25 -34 -43 -34 -66 0 -30 2 -32 28
-28 15 3 34 8 43 12 15 6 16 2 8 -41 -13 -69 -39 -156 -51 -171 -15 -18 -3
-26 20 -13 12 6 38 11 58 11 31 0 45 -7 81 -45 55 -57 55 -74 1 -35 -50 36
-107 40 -155 10 -18 -11 -33 -22 -33 -25 0 -2 20 -2 44 1 63 9 86 1 153 -55
62 -52 136 -81 206 -81 31 0 45 -7 68 -31 29 -31 33 -46 29 -104 -2 -29 -1
-29 17 -13 11 10 29 38 42 63 21 41 22 53 16 152 -8 127 -29 174 -98 221 -49
34 -125 62 -169 62 l-31 0 27 -21 c64 -50 -5 -94 -73 -47 -57 39 -76 88 -75
198 2 154 49 294 130 380 63 67 40 64 -35 -6z m149 -660 c0 -9 -11 -14 -30
-14 -24 0 -28 -3 -23 -17 10 -30 35 -53 57 -53 37 0 66 28 66 62 0 30 1 31 15
12 20 -27 18 -57 -6 -88 -18 -22 -28 -26 -75 -26 -70 0 -112 34 -121 97 l-5
42 38 6 c22 4 44 8 49 9 14 4 35 -14 35 -30z"/>
<path d="M1791 3189 c-21 -23 -31 -61 -24 -90 12 -46 120 -4 143 55 19 51 -77
79 -119 35z"/>
<path d="M2308 3176 c43 -49 74 -101 95 -156 89 -242 47 -458 -90 -460 -30 0
-33 3 -33 29 0 18 8 34 23 44 22 16 22 16 -10 16 -49 1 -134 -35 -183 -76 -65
-56 -80 -97 -80 -228 0 -104 2 -114 27 -153 15 -23 31 -42 35 -42 5 0 8 18 8
40 0 29 7 48 30 73 26 30 37 35 94 40 79 8 122 25 172 70 62 55 100 70 158 63
l50 -6 -21 22 c-14 13 -38 22 -70 25 -40 4 -54 0 -86 -21 -48 -33 -51 -33 -32
3 31 62 103 89 157 60 29 -15 30 -9 9 47 -23 59 -46 172 -38 181 4 3 13 0 21
-6 8 -7 25 -11 38 -9 18 2 22 8 20 28 -6 43 -36 85 -69 94 -27 8 -32 16 -42
62 -18 78 -63 162 -119 221 -62 64 -115 97 -64 39z m14 -672 c4 -3 5 -17 2
-32 -15 -72 -53 -102 -126 -102 -61 0 -88 21 -88 70 0 21 5 42 10 45 6 3 10
-2 10 -13 0 -27 37 -62 65 -62 28 0 65 32 65 55 0 9 -9 15 -24 15 -32 0 -44
20 -22 35 16 12 82 5 108 -11z"/>
<path d="M1207 3166 c-78 -28 -157 -106 -143 -141 12 -32 116 -8 184 43 37 28
66 77 58 98 -7 17 -49 17 -99 0z"/>
<path d="M2057 3173 c-30 -29 40 -113 119 -143 74 -27 114 -27 114 1 0 41 -64
104 -128 127 -60 22 -94 27 -105 15z"/>
<path d="M1656 3019 c-27 -67 -31 -122 -11 -153 31 -46 71 -29 81 36 6 37 -25
149 -42 155 -7 2 -19 -15 -28 -38z"/>
<path d="M1339 3007 c-18 -12 -47 -42 -63 -66 -34 -51 -29 -85 16 -110 25 -14
28 -13 74 22 27 21 58 40 69 43 47 12 73 104 36 124 -34 18 -96 12 -132 -13z"/>
<path d="M1883 3020 c-46 -18 -12 -107 49 -133 18 -8 47 -26 64 -40 18 -15 39
-27 47 -27 14 0 67 54 67 68 0 21 -70 108 -100 124 -37 19 -90 23 -127 8z"/>
<path d="M1558 2890 c-22 -14 -58 -73 -58 -98 0 -45 58 -34 85 18 18 35 19 51
3 73 -10 12 -18 14 -30 7z"/>
<path d="M1767 2893 c-4 -3 -7 -22 -7 -40 0 -25 8 -43 29 -64 33 -33 43 -35
61 -14 28 34 -53 148 -83 118z"/>
<path d="M1050 2853 c-48 -25 -82 -78 -78 -123 3 -29 7 -35 28 -38 19 -2 41
11 88 54 55 49 63 61 60 88 -3 26 -7 31 -33 34 -16 1 -46 -6 -65 -15z"/>
<path d="M2210 2855 c-19 -23 2 -63 65 -117 58 -52 88 -60 105 -27 9 16 7 30
-12 67 -37 75 -124 117 -158 77z"/>
<path d="M1656 2698 c-19 -27 -20 -48 -4 -83 13 -30 29 -32 52 -6 23 26 18 79
-11 98 -19 13 -23 12 -37 -9z"/>
<path d="M1465 2684 c-40 -21 -64 -43 -81 -76 -19 -37 -17 -67 6 -105 27 -44
64 -45 88 -2 9 17 31 53 48 80 21 33 30 58 26 72 -12 49 -36 58 -87 31z"/>
<path d="M1814 2675 c-18 -27 -13 -51 19 -91 12 -15 31 -46 42 -68 26 -53 53
-58 89 -16 35 43 34 85 -4 131 -29 36 -84 69 -114 69 -8 0 -23 -11 -32 -25z"/>
<path d="M664 2412 c-22 -14 -34 -52 -35 -111 -1 -51 2 -66 24 -95 29 -37 52
-47 83 -35 16 5 23 19 28 58 14 107 -47 219 -100 183z"/>
<path d="M2637 2402 c-59 -65 -64 -219 -7 -237 27 -9 65 16 86 57 22 42 16
148 -10 177 -23 26 -48 27 -69 3z"/>
<path d="M880 2311 c0 -46 79 -121 127 -121 39 0 25 29 -42 82 -56 46 -85 59
-85 39z"/>
<path d="M2393 2273 c-66 -49 -82 -83 -40 -83 28 0 101 50 116 79 15 27 14 51
-1 51 -7 -1 -41 -22 -75 -47z"/>
<path d="M843 2168 c6 -46 37 -83 79 -93 24 -6 29 -3 38 20 7 19 7 34 -3 53
-13 28 -67 61 -101 62 -16 0 -18 -5 -13 -42z"/>
<path d="M2462 2195 c-58 -25 -82 -67 -62 -105 27 -50 112 6 114 76 1 43 -7
48 -52 29z"/>
<path d="M732 2078 c-17 -17 -15 -48 8 -85 24 -41 52 -55 98 -51 34 3 37 6 40
35 4 45 -57 113 -102 113 -18 0 -37 -5 -44 -12z"/>
<path d="M2545 2078 c-23 -13 -57 -53 -67 -79 -11 -28 19 -59 56 -59 45 0 83
32 97 83 9 36 9 43 -7 54 -22 16 -52 16 -79 1z"/>
<path d="M1024 2050 c-33 -13 -37 -27 -14 -50 24 -24 77 -27 106 -6 19 15 19
15 -1 35 -24 24 -63 33 -91 21z"/>
<path d="M2252 2038 c-45 -45 47 -82 99 -39 20 16 21 21 10 35 -16 19 -91 22
-109 4z"/>
<path d="M916 1944 c-23 -23 -19 -61 9 -89 29 -30 58 -32 85 -5 27 27 25 46
-9 81 -33 32 -62 37 -85 13z"/>
<path d="M2378 1944 c-49 -26 -57 -71 -19 -101 39 -30 101 8 101 61 0 54 -30
69 -82 40z"/>
</g>
</svg>
